# xmcd
#
# Track frame offsets: 
#        150
#        17470
#        34931
#        46578
#        60068
#        74823
#        88044
#        100680
#        113024
#        125442
#        135316
#        149948
#        161635
#        173132
#        185584
#        198694
#        211818
#        225120
#        239407
#        256779
#
# Disc length: 3587 seconds
#
# Revision: 0
# Processed by: cddbd v1.5.2PL0 Copyright (c) Steve Scherf et al.
# Submitted via: ExactAudioCopy v0.99pb5
#
DISCID=0d0e0114
DTITLE=Otis Redding  - 100 Hits Legends - 5 CD Boxset - CD 4
DYEAR=1900
DGENRE=
TTITLE0=Try A Little Tenderness
TTITLE1=Cigarettes And Coffee
TTITLE2=Bring It On Home To Me
TTITLE3=Glory Of Love
TTITLE4=I've Got Dreams To Remember
TTITLE5=I Love You More Than Words Can Say
TTITLE6=When Something Is Wrong With My Baby
TTITLE7=The Happy Song (Dum-Dum-De-De-De-Dum-Dum)
TTITLE8=You Left The Water Running
TTITLE9=Treat Her Right
TTITLE10=Trick Or Treat
TTITLE11=Day Tripper
TTITLE12=Don't Mess With Cupid
TTITLE13=It's Growing
TTITLE14=Let Me Come Home
TTITLE15=Ton Of Joy
TTITLE16=Let Me Be Good To You
TTITLE17=Nobody Knows You
TTITLE18=You're Still My Baby
TTITLE19=(Sittin' On) The Dock Of The Bay)
EXTD=
EXTT0=
EXTT1=
EXTT2=
EXTT3=
EXTT4=
EXTT5=
EXTT6=
EXTT7=
EXTT8=
EXTT9=
EXTT10=
EXTT11=
EXTT12=
EXTT13=
EXTT14=
EXTT15=
EXTT16=
EXTT17=
EXTT18=
EXTT19=
PLAYORDER=
